<?xml version="1.0" encoding="utf-8"?>
<!-- Generator: Adobe Illustrator 19.0.0, SVG Export Plug-In . SVG Version: 6.00 Build 0)  -->
<svg version="1.1" id="Layer_1" xmlns="http://www.w3.org/2000/svg" xmlns:xlink="http://www.w3.org/1999/xlink" x="0px" y="0px"
	 viewBox="0 0 769.9 129.1" enable-background="new 0 0 769.9 129.1" xml:space="preserve">
<g id="XMLID_882_">
	<path id="XMLID_2_" fill="#FFFFFF" d="M211.3,25.2c-4-6.3-9.5-10.3-17.8-10.3c-9.4,0-16.5,7.6-16.5,16.7s8.7,13,15.8,16.4l16.7,8.7
		c6.6,4.2,10,9.5,10,17.4c0,14.5-13.2,25.5-27.4,25.5c-12.2,0-21.7-7.6-25.8-18.8l4.9-2.2c3.7,9.3,10.6,15.8,21.2,15.8
		c11.5,0,21.6-9.1,21.6-20.7c0-9.9-10.1-14.1-17.7-17.8l-15.8-8.4c-5.8-3.6-9.1-8.7-9.1-15.7c0-13,9.3-22.2,22.4-22.2
		c8.8,0,17.2,4.8,21.4,12.3L211.3,25.2z"/>
	<path id="XMLID_4_" fill="#FFFFFF" d="M271.7,57.2c-5.1-5.6-11.3-8.7-18.9-8.7c-12.7,0-22.2,10.8-22.2,23s9.4,23.2,22.1,23.2
		c7.7,0,14.9-3.7,19.8-9.6v7.1c-5.5,4.8-12.3,7.4-19.5,7.4c-15.9,0-27.5-12.4-27.5-28.1c0-15.6,11.9-27.9,27.7-27.9
		c7,0,13.4,2.1,18.7,6.6V57.2z"/>
	<path id="XMLID_6_" fill="#FFFFFF" d="M288.3,51.7h0.2c2.1-4.9,5.9-8.1,11.6-8.1c2.1,0,3.8,0.5,5.7,1.3l-2.8,4.6
		c-1.3-0.7-2.3-1-3.7-1c-11.7,0-11,14.6-11,22.5v27.4h-5.2V44.7h5.2V51.7z"/>
	<path id="XMLID_8_" fill="#FFFFFF" d="M312.5,72c-0.3,13.6,9.1,22.7,21.5,22.7c8.4,0,15.1-5,18.9-12.2l4.4,2.6
		c-4.9,9.3-13.5,14.5-24.1,14.5c-15.9,0-26-12.9-26-28.1c0-15,10.3-27.9,26-27.9c16.3,0,25.9,13,25.8,28.5H312.5z M353.9,67.2
		c-1.3-9.9-9.4-18.7-20.5-18.7c-10.9,0-20,8.6-20.9,18.7H353.9z"/>
	<path id="XMLID_11_" fill="#FFFFFF" d="M368.9,72c-0.3,13.6,9.1,22.7,21.5,22.7c8.4,0,15.1-5,18.9-12.2l4.4,2.6
		c-4.9,9.3-13.5,14.5-24.1,14.5c-15.9,0-26-12.9-26-28.1c0-15,10.3-27.9,26-27.9c16.3,0,25.9,13,25.8,28.5H368.9z M410.2,67.2
		c-1.3-9.9-9.4-18.7-20.5-18.7c-10.9,0-20,8.6-20.9,18.7H410.2z"/>
	<path id="XMLID_14_" fill="#FFFFFF" d="M430.5,53.1h0.2c3.1-5.9,8.9-9.5,15.9-9.5c13.8,0,17.7,8.6,17.7,22.4v32.4h-5.2V66
		c0-9.6-1.2-17.5-12.9-17.5c-13.5,0-15.7,12.6-15.7,23.5v26.5h-5.2V44.7h5.2V53.1z"/>
	<path id="XMLID_16_" fill="#FFFFFF" d="M519.7,60.1h-0.2c-4.3-5.5-9.6-9.2-17-9.2c-11.3,0-19.3,9.3-19.3,20.2
		c0,10.8,7.4,20.2,18.8,20.2c7.8,0,13.2-3.5,17.8-9.4h0.2v12.4c-5.3,3.6-10.8,5.6-17.3,5.6c-16.5,0-29.1-12.3-29.1-28.8
		c0-16.3,13.1-28.8,29.2-28.8c5.9,0,12,2,16.9,5.5V60.1z"/>
	<path id="XMLID_18_" fill="#FFFFFF" d="M581.4,98.4h-9.3v-7.6h-0.2c-4.8,6-11.2,9.1-18.8,9.1c-16,0-26.1-13.6-26.1-28.7
		c0-15.6,9.9-28.9,26.3-28.9c7.4,0,14.2,3.5,18.7,9.3h0.2v-7.8h9.3V98.4z M536.4,70.5c0,10.7,6.3,20.8,17.9,20.8
		c12,0,18.2-9.6,18.2-20.7c0-10.9-6.9-19.8-18.4-19.8C543.4,50.9,536.4,60.3,536.4,70.5z"/>
	<path id="XMLID_21_" fill="#FFFFFF" d="M617.8,56.5c-1.3-2.9-4.1-5.6-7.4-5.6c-3.3,0-6.7,2.6-6.7,6c0,5,6.3,6.9,12.7,9.5
		s12.7,6.5,12.7,15.7c0,10.3-8.4,17.8-18.5,17.8c-9.2,0-16.4-5.2-19.3-13.8l8.3-3.5c2.3,5.1,5,8.7,11.2,8.7c5,0,8.8-3.4,8.8-8.4
		c0-12.2-24.6-8-24.6-25.2c0-9.2,7.4-15.5,16.3-15.5c6.3,0,12.1,4.4,14.5,10.1L617.8,56.5z"/>
	<path id="XMLID_23_" fill="#FFFFFF" d="M648.9,98.4h-9.3v-46h-5.7v-8.6h5.7V24.2h9.3v19.6h9.8v8.6h-9.8V98.4z"/>
	<path id="XMLID_25_" fill="#FFFFFF" d="M677.2,23.2c0,3.7-3,6.6-6.6,6.6s-6.6-2.9-6.6-6.6c0-3.6,3-6.6,6.6-6.6
		S677.2,19.6,677.2,23.2z M675.2,98.4h-9.3V43.8h9.3V98.4z"/>
	<path id="XMLID_28_" fill="#FFFFFF" d="M701.8,98.4h-9.3v-46h-5.1v-8.6h5.1V22.1c0-4.5,0-10.2,2.4-14.2C698,3,703.4,1,709,1
		c2.2,0,4.4,0.5,6.6,1.2v9.4c-2.1-0.7-4-1.3-6.3-1.3c-7.6,0-7.6,5.3-7.6,15v18.5h13.8v8.6h-13.8V98.4z"/>
	<path id="XMLID_30_" fill="#FFFFFF" d="M711.6,43.8h10.8L741.7,83l17.7-39.2h10.6l-40.3,85.3H719l17.7-35.8L711.6,43.8z"/>
</g>
<g id="XMLID_254_">
	<linearGradient id="XMLID_45_" gradientUnits="userSpaceOnUse" x1="9.3249" y1="80.238" x2="30.803" y2="34.2849">
		<stop  offset="0" style="stop-color:#FFFFFF"/>
		<stop  offset="1" style="stop-color:#ffffff"/>
	</linearGradient>
	<path id="XMLID_256_" fill="url(#XMLID_45_)" d="M6.3,29.6c-3.1,0-6.3,2.5-6.3,5.6v40.2c0,3.1,3.2,5.2,6.3,5.2H40v-51H6.3z"/>
	<linearGradient id="XMLID_46_" gradientUnits="userSpaceOnUse" x1="55.1169" y1="102.0302" x2="76.6256" y2="56.0117">
		<stop  offset="0" style="stop-color:#ffffff"/>
		<stop  offset="1" style="stop-color:#ffffff"/>
	</linearGradient>
	<path id="XMLID_255_" fill="url(#XMLID_46_)" d="M134.9,50.8l-31.8-18.3l0,0L47.9,0.7C44.5-1.3,40,1.2,40,5.1v24.6h36.7
		c3.1,0,5.3,2.5,5.3,5.6v9.3l21-12v45.4l-21-12v9.6c0,3.1-2.2,5.2-5.3,5.2H40v24.7c0,3.9,4.5,6.3,7.9,4.4l55.2-31.7l0,0l31.8-18.3
		C138.3,57.6,138.3,52.7,134.9,50.8z"/>
</g>
</svg>
